<svg version="1.1" id="Layer_1" xmlns="http://www.w3.org/2000/svg" xmlns:xlink="http://www.w3.org/1999/xlink" x="0px" y="0px" viewBox="35 -33.1 180 178" style="enable-background:new 35 -33.1 180 178;" xml:space="preserve">
 <style type="text/css">
  .st0{fill:#FDB71A;}
 </style>
 <g>
  <path class="st0" d="M110,30.3c0,6.1-5.5,11.6-11.6,11.6H46.6c-6.1,0-11.6-5.5-11.6-11.6l0,0v-51.8c0-6.1,5.5-11.6,11.6-11.6l0,0
		h51.8c6.1,0,11.6,5.5,11.6,11.6V30.3z">
  </path>
  <path class="st0" d="M215,30.3c0,6.1-5.5,11.6-11.6,11.6h-51.8c-6.1,0-11.6-5.5-11.6-11.6l0,0v-51.8c0-6.1,5.5-11.6,11.6-11.6l0,0
		h51.8c6.1,0,11.6,5.5,11.6,11.6l0,0V30.3z">
  </path>
  <path class="st0" d="M110,133.2c0,6.1-4.8,11.6-11.6,11.6H46.6c-6.1,0-11.6-5.5-11.6-11.6l0,0V81.4c0-6.1,5.5-11.6,11.6-11.6l0,0
		h51.8c6.1,0,11.6,5.5,11.6,11.6V133.2z">
  </path>
  <path class="st0" d="M215,133.2c0,6.1-5.5,11.6-11.6,11.6h-51.8c-6.1,0-11.6-5.5-11.6-11.6l0,0V81.4c0-6.1,5.5-11.6,11.6-11.6l0,0
		h51.8c6.1,0,11.6,5.5,11.6,11.6l0,0V133.2z">
  </path>
 </g>
</svg>